<?xml version="1.0" encoding="utf-8"?>
<!-- Generator: Adobe Illustrator 19.0.1, SVG Export Plug-In . SVG Version: 6.00 Build 0)  -->
<svg version="1.1" id="Layer_1" xmlns="http://www.w3.org/2000/svg" xmlns:xlink="http://www.w3.org/1999/xlink" x="0px" y="0px"
	 viewBox="-98 194 414.2 405" style="enable-background:new -98 194 414.2 405;" xml:space="preserve">
<style type="text/css">
	.st0{fill:#5894F5;}
</style>
<g id="PathID_1" transform="matrix(7.88129, 0, 0, 8.47452, 86.9, 408.2)">
	<path class="st0" d="M-19.3-11.4c-0.1-1.6,0-3.4,0.3-5.4c0.3-2,1.3-3.8,2.8-5.5c1-0.9,2.1-1.6,3.3-2s2.4-0.6,3.6-0.6
		c0.9,0,1.8,0.1,2.4,0.3c0.7,0.1,1.4,0.3,1.9,0.5l-0.6,4.5C-6-19.8-6.4-19.9-6.9-20s-1-0.2-1.7-0.2c-1.8,0.1-3.1,0.8-3.9,2.1
		c-0.7,1.4-1,3-1,5v1.6h6.3v4.4h-6.2v23.8h-5.9V-7.1h-3.8v-4.4h3.8"/>
</g>
<g id="PathID_2" transform="matrix(7.88129, 0, 0, 8.47452, 86.9, 408.2)">
</g>
<g id="PathID_3" transform="matrix(3.75982, 0, 6.16191e-007, 3.5242, 211.15, 351.05)">
	<path class="st0" d="M-25.6,39.3c-1,0.5-2.3,0.9-3.9,1.1c-1.5,0.3-3.2,0.5-5.1,0.5c-4.3,0-7.6-1.3-9.9-3.8c-2.3-2.6-3.5-6-3.5-10.4
		c0-2.8,0.5-5.4,1.5-7.7s2.4-4.1,4.3-5.4c1.9-1.3,4.2-2,6.8-2c2.6,0,4.8,0.7,6.4,2c1.6,1.3,2.8,2.9,3.6,5c0.8,2,1.1,4.2,1.1,6.5v1.4
		c0,0.4,0,0.8-0.1,1.1h-17.9c0.2,3.2,1.1,5.4,2.6,6.8c1.6,1.4,3.6,2,5.9,2c1.5,0,2.9-0.2,4-0.4c1.2-0.2,2.2-0.5,3.1-1L-25.6,39.3
		 M-29.8,23.5c0-1.2-0.2-2.3-0.6-3.4c-0.3-1.2-0.9-2.2-1.8-3c-0.8-0.8-2-1.2-3.5-1.2c-1.4,0-2.6,0.4-3.6,1.3
		c-0.9,0.7-1.6,1.7-2.1,2.9c-0.5,1.1-0.7,2.3-0.8,3.4H-29.8"/>
</g>
<g id="PathID_4" transform="matrix(3.75982, 0, 6.16191e-007, 3.5242, 211.15, 351.05)">
</g>
<g id="PathID_5" transform="matrix(3.75982, 0, 6.16191e-007, 3.5242, 302.4, 350.5)">
	<path class="st0" d="M-25.6,39.3c-1,0.5-2.3,0.9-3.9,1.1c-1.5,0.3-3.2,0.5-5.1,0.5c-4.3,0-7.6-1.3-9.9-3.8c-2.3-2.6-3.5-6-3.5-10.4
		c0-2.8,0.5-5.4,1.5-7.7s2.4-4.1,4.3-5.4c1.9-1.3,4.2-2,6.8-2c2.6,0,4.8,0.7,6.4,2c1.6,1.3,2.8,2.9,3.6,5c0.8,2,1.1,4.2,1.1,6.5v1.4
		c0,0.4,0,0.8-0.1,1.1h-17.9c0.2,3.2,1.1,5.4,2.6,6.8c1.6,1.4,3.6,2,5.9,2c1.5,0,2.9-0.2,4-0.4c1.2-0.2,2.2-0.5,3.1-1L-25.6,39.3
		 M-29.8,23.5c0-1.2-0.2-2.3-0.6-3.4c-0.3-1.2-0.9-2.2-1.8-3c-0.8-0.8-2-1.2-3.5-1.2c-1.4,0-2.6,0.4-3.6,1.3
		c-0.9,0.7-1.6,1.7-2.1,2.9c-0.5,1.1-0.7,2.3-0.8,3.4H-29.8"/>
</g>
<g id="PathID_6" transform="matrix(3.75982, 0, 6.16191e-007, 3.5242, 302.4, 350.5)">
</g>
<g id="PathID_7" transform="matrix(7.1091, 0, 0, 6.9911, 146.2, 408.1)">
	<path class="st0" d="M-8.6-2.6l-0.8-0.1l-0.9-0.1c-2,0-3.6,0.8-4.8,2.2C-16.2,1-16.8,3-16.8,5.5v14.9h-5.9V0.8v-4.5l-0.2-4h5.1
		l0.2,5.1h0.2c0.7-1.8,1.7-3.2,3-4.2s2.8-1.5,4.4-1.5h0.8l0.7,0.1L-8.6-2.6"/>
</g>
<g id="PathID_8" transform="matrix(7.1091, 0, 0, 6.9911, 146.2, 408.1)">
</g>
<g id="PathID_9" transform="matrix(7.90591, 0, 0, 8.55704, 363.45, 448.25)">
	<path class="st0" d="M-18.9-16.7l5.8-1.9v7h6.7v4.4h-6.7V7.2c0,1.7,0.3,3,0.8,3.9c0.6,0.9,1.5,1.3,2.8,1.3l1.5-0.1
		c0.4-0.1,0.8-0.2,1.1-0.3l0.2,4.6c-0.5,0.2-1.1,0.3-2,0.4c-0.8,0.1-1.6,0.2-2.6,0.2c-1.2,0-2.2-0.2-3.2-0.6
		c-0.9-0.3-1.7-0.8-2.3-1.5c-0.7-0.8-1.2-1.8-1.6-3c-0.3-1.2-0.5-2.8-0.5-4.6V-7.1h-4v-4.4h4V-16.7"/>
</g>
<g id="PathID_10" transform="matrix(7.90591, 0, 0, 8.55704, 363.45, 448.25)">
</g>
<g id="PathID_11" transform="matrix(-7.1091, -6.21498e-007, 0, 6.9911, 474.3, 407.05)">
	<path class="st0" d="M44.5-2.8l-0.8-0.1L42.8-3c-2,0-3.6,0.8-4.8,2.2c-1.1,1.5-1.7,3.5-1.8,6v14.9h-5.9V0.6l-0.1-4.5l-0.2-4h5.1
		l0.2,5.1h0.2c0.7-1.8,1.7-3.2,3-4.2s2.8-1.5,4.4-1.5h0.8l0.7,0.1L44.5-2.8"/>
</g>
<g id="PathID_12" transform="matrix(-7.1091, -6.21498e-007, 0, 6.9911, 474.3, 407.05)">
</g>
<g id="PathID_13" transform="matrix(1, 0, 0, 1, 380.25, 208.6)">
	<path class="st0" d="M-210.5,139.6h44.5v5.5h-44.5V139.6"/>
</g>
<g id="PathID_14" transform="matrix(1, 0, 0, 1, 380.25, 208.6)">
</g>
<g id="PathID_15" transform="matrix(1.21802, 0, 0, 1.50969, 474.9, 210.55)">
	<path class="st0" d="M-177.6,91.5h44.5V97h-44.5V91.5"/>
</g>
<g id="PathID_16" transform="matrix(1.21802, 0, 0, 1.50969, 474.9, 210.55)">
</g>
</svg>
